<svg id="Слой_1" data-name="Слой 1" xmlns="http://www.w3.org/2000/svg" viewBox="0 0 1000 1000"><defs><style>.cls-1{font-size:290.76px;fill:#589efe;font-family:BankGothicBT-Light, BankGothic Lt BT;font-weight:300;letter-spacing:-0.04em;}.cls-2{letter-spacing:-0.05em;}.cls-3,.cls-4{fill:#fff;}.cls-3{letter-spacing:0em;}</style></defs><title>2Монтажная область 1</title><text class="cls-1" transform="translate(52.81 526.66)">W<tspan class="cls-2" x="239.94" y="0">a</tspan><tspan class="cls-3" x="406.33" y="0">yd</tspan></text><path class="cls-4" d="M721.89,351.77a85.06,85.06,0,0,0,33.51-16c17.72-14.15,16.62-26,30.75-40.17,16.93-17,44.57-26.16,70.75-21.84,4.21.69,34.34,6.13,52.77,32.42,23.32,33.26,10.83,75.1,3.82,98.56-6.67,22.3-16,37.67-28.52,58.11-26.86,44-45.7,55-48.42,83-1.83,18.87,4.68,34.91,10,44.93,10.63-13.92,24.68-33,40.33-56.34,19.22-28.66,31-46.12,43.6-70.82,16.73-32.92,29.51-58.09,32.87-93.56,2.07-21.91,4.55-48-9.13-75.15-21.29-42.28-69.53-63-110.21-63.58-10-.15-35.43-.2-61.88,15.26C727.81,278.37,722.38,344.37,721.89,351.77Z"/><circle class="cls-4" cx="849.78" cy="631.59" r="25.04"/><circle class="cls-4" cx="843.32" cy="355.68" r="25.04"/></svg>